# xmcd
#
# Track frame offsets: 
#        150
#        22624
#        45352
#        61157
#        77794
#        98256
#        127170
#        147983
#
# Disc length: 2359 seconds
#
# Revision: 1
# Processed by: cddbd v1.5.2PL0 Copyright (c) Steve Scherf et al.
# Submitted via: ExactAudioCopyFreeDBPlugin 1.0
#
DISCID=57093508
DTITLE=SMC Lähiörotat - Raffii Suomi-flättii
DYEAR=2011
DGENRE=Hip-Hop
TTITLE0=Northside Nagetti
TTITLE1=Lähiörotat Skujaa (feat. Notkea Rotta)
TTITLE2=Lahden Sininen (feat. El Maestro and Raikka)
TTITLE3=MihinVaan Meet (feat. Jodarok)
TTITLE4=Huudeilta Huudeille (feat. Aqustiikka)
TTITLE5=Raffii Suomi-flättii (feat. Asa, HenryWho? and Ameeba)
TTITLE6=Liukuhihna (feat. Rohtori and Paula Latzo)
TTITLE7=Yks Risti Kaks (feat. Raimo)
EXTD=
EXTT0=
EXTT1=
EXTT2=
EXTT3=
EXTT4=
EXTT5=
EXTT6=
EXTT7=
PLAYORDER=
